<svg xmlns="http://www.w3.org/2000/svg" viewBox="0 0 32 32" fill="none">
  <!-- Background square with rounded corners -->
  <rect width="32" height="32" rx="7" fill="#090909"/>
  <!-- Outer flame body -->
  <path
    d="M16 4
       C16 4 22 9 22 14
       C22 16.5 20.5 18.5 19 19.5
       C19.5 17.5 18.5 15.5 17 14.5
       C17.5 17 16 19 14 20.5
       C12 22 11 20 11 18
       C11 15 12.5 12.5 14 11
       C13 13 13.5 15 14.5 15.5
       C14 13 14.5 10 16 8
       C16 8 15 11 16.5 12
       C17.5 10 16 4 16 4Z"
    fill="#e63528"
  />
  <!-- Inner flame highlight -->
  <path
    d="M16 12
       C16 12 18.5 14.5 18.5 17
       C18.5 18.5 17.5 19.5 16.5 20
       C16.8 18.5 16 17 15 16.5
       C15.5 18 15 19.5 14 20.5
       C13 19 13 17.5 13.5 16
       C14 14.5 15 13.5 16 12Z"
    fill="#ff6b5b"
    opacity="0.7"
  />
  <!-- Play triangle — viewer / watch motif -->
  <path
    d="M13 22.5 L13 27.5 L20 25 Z"
    fill="#e63528"
    opacity="0.9"
  />
</svg>
